<mxfile host="app.diagrams.net" modified="2024-04-01T02:03:19.208Z" agent="Mozilla/5.0 (Windows NT 10.0; Win64; x64) AppleWebKit/537.36 (KHTML, like Gecko) Chrome/123.0.0.0 Safari/537.36" etag="lPfyCbwM5wkn20RFYseA" version="24.2.0" type="device">
  <diagram name="Page-1" id="RYCjcGIQNTWOIQQ9NclM">
    <mxGraphModel dx="1050" dy="583" grid="1" gridSize="10" guides="1" tooltips="1" connect="1" arrows="1" fold="1" page="1" pageScale="1" pageWidth="850" pageHeight="1100" math="0" shadow="0">
      <root>
        <mxCell id="0" />
        <mxCell id="1" parent="0" />
        <mxCell id="5Sapgg05dPMr0Ldm-NUC-3" style="edgeStyle=orthogonalEdgeStyle;rounded=0;orthogonalLoop=1;jettySize=auto;html=1;" edge="1" parent="1" source="5Sapgg05dPMr0Ldm-NUC-1" target="5Sapgg05dPMr0Ldm-NUC-2">
          <mxGeometry relative="1" as="geometry" />
        </mxCell>
        <mxCell id="5Sapgg05dPMr0Ldm-NUC-1" value="" style="sketch=0;aspect=fixed;pointerEvents=1;shadow=0;dashed=0;html=1;strokeColor=none;labelPosition=center;verticalLabelPosition=bottom;verticalAlign=top;align=center;fillColor=#00188D;shape=mxgraph.azure.laptop" vertex="1" parent="1">
          <mxGeometry x="120" y="155" width="133.33" height="80" as="geometry" />
        </mxCell>
        <mxCell id="5Sapgg05dPMr0Ldm-NUC-2" value="" style="image;html=1;image=img/lib/clip_art/computers/Server_Rack_128x128.png" vertex="1" parent="1">
          <mxGeometry x="580" y="140" width="110" height="110" as="geometry" />
        </mxCell>
        <mxCell id="5Sapgg05dPMr0Ldm-NUC-4" value="&lt;b&gt;Laptop&lt;/b&gt;" style="text;html=1;align=center;verticalAlign=middle;resizable=0;points=[];autosize=1;strokeColor=none;fillColor=none;" vertex="1" parent="1">
          <mxGeometry x="160" y="248" width="60" height="30" as="geometry" />
        </mxCell>
        <mxCell id="5Sapgg05dPMr0Ldm-NUC-5" value="&lt;b&gt;Facebook Server&lt;/b&gt;" style="text;html=1;align=center;verticalAlign=middle;resizable=0;points=[];autosize=1;strokeColor=none;fillColor=none;" vertex="1" parent="1">
          <mxGeometry x="575" y="258" width="120" height="30" as="geometry" />
        </mxCell>
        <mxCell id="5Sapgg05dPMr0Ldm-NUC-6" value="" style="sketch=0;aspect=fixed;pointerEvents=1;shadow=0;dashed=0;html=1;strokeColor=none;labelPosition=center;verticalLabelPosition=bottom;verticalAlign=top;align=center;fillColor=#00188D;shape=mxgraph.azure.laptop" vertex="1" parent="1">
          <mxGeometry x="120" y="380" width="133.33" height="80" as="geometry" />
        </mxCell>
        <mxCell id="5Sapgg05dPMr0Ldm-NUC-7" value="" style="html=1;verticalLabelPosition=bottom;align=center;labelBackgroundColor=#ffffff;verticalAlign=top;strokeWidth=2;strokeColor=#0080F0;shadow=0;dashed=0;shape=mxgraph.ios7.icons.smartphone;" vertex="1" parent="1">
          <mxGeometry x="450" y="370" width="90" height="130" as="geometry" />
        </mxCell>
        <mxCell id="5Sapgg05dPMr0Ldm-NUC-8" style="edgeStyle=orthogonalEdgeStyle;rounded=0;orthogonalLoop=1;jettySize=auto;html=1;entryX=-0.018;entryY=0.375;entryDx=0;entryDy=0;entryPerimeter=0;" edge="1" parent="1" source="5Sapgg05dPMr0Ldm-NUC-6" target="5Sapgg05dPMr0Ldm-NUC-7">
          <mxGeometry relative="1" as="geometry" />
        </mxCell>
        <mxCell id="5Sapgg05dPMr0Ldm-NUC-9" value="" style="image;html=1;image=img/lib/clip_art/general/Full_Folder_128x128.png" vertex="1" parent="1">
          <mxGeometry x="465" y="400" width="45" height="50" as="geometry" />
        </mxCell>
        <mxCell id="5Sapgg05dPMr0Ldm-NUC-10" value="&lt;b&gt;Mobile&lt;/b&gt;" style="text;html=1;align=center;verticalAlign=middle;resizable=0;points=[];autosize=1;strokeColor=none;fillColor=none;" vertex="1" parent="1">
          <mxGeometry x="465" y="520" width="60" height="30" as="geometry" />
        </mxCell>
        <mxCell id="5Sapgg05dPMr0Ldm-NUC-11" value="&lt;b&gt;Laptop&lt;/b&gt;" style="text;html=1;align=center;verticalAlign=middle;resizable=0;points=[];autosize=1;strokeColor=none;fillColor=none;" vertex="1" parent="1">
          <mxGeometry x="156.66" y="478" width="60" height="30" as="geometry" />
        </mxCell>
        <mxCell id="5Sapgg05dPMr0Ldm-NUC-12" value="" style="sketch=0;aspect=fixed;pointerEvents=1;shadow=0;dashed=0;html=1;strokeColor=none;labelPosition=center;verticalLabelPosition=bottom;verticalAlign=top;align=center;fillColor=#00188D;shape=mxgraph.azure.laptop" vertex="1" parent="1">
          <mxGeometry x="123.34" y="590" width="133.33" height="80" as="geometry" />
        </mxCell>
        <mxCell id="5Sapgg05dPMr0Ldm-NUC-13" value="" style="html=1;verticalLabelPosition=bottom;align=center;labelBackgroundColor=#ffffff;verticalAlign=top;strokeWidth=2;strokeColor=#0080F0;shadow=0;dashed=0;shape=mxgraph.ios7.icons.smartphone;" vertex="1" parent="1">
          <mxGeometry x="425" y="565" width="90" height="130" as="geometry" />
        </mxCell>
        <mxCell id="5Sapgg05dPMr0Ldm-NUC-14" style="edgeStyle=orthogonalEdgeStyle;rounded=0;orthogonalLoop=1;jettySize=auto;html=1;entryX=0.92;entryY=0.5;entryDx=0;entryDy=0;entryPerimeter=0;" edge="1" parent="1" source="5Sapgg05dPMr0Ldm-NUC-13" target="5Sapgg05dPMr0Ldm-NUC-12">
          <mxGeometry relative="1" as="geometry" />
        </mxCell>
        <mxCell id="5Sapgg05dPMr0Ldm-NUC-15" value="&lt;b&gt;Laptop&lt;/b&gt;" style="text;html=1;align=center;verticalAlign=middle;resizable=0;points=[];autosize=1;strokeColor=none;fillColor=none;" vertex="1" parent="1">
          <mxGeometry x="160" y="680" width="60" height="30" as="geometry" />
        </mxCell>
        <mxCell id="5Sapgg05dPMr0Ldm-NUC-17" value="&lt;b&gt;Mobile&lt;/b&gt;" style="text;html=1;align=center;verticalAlign=middle;resizable=0;points=[];autosize=1;strokeColor=none;fillColor=none;" vertex="1" parent="1">
          <mxGeometry x="450" y="718" width="60" height="30" as="geometry" />
        </mxCell>
        <mxCell id="5Sapgg05dPMr0Ldm-NUC-18" value="" style="image;html=1;image=img/lib/clip_art/general/Full_Folder_128x128.png" vertex="1" parent="1">
          <mxGeometry x="160" y="600" width="45" height="50" as="geometry" />
        </mxCell>
      </root>
    </mxGraphModel>
  </diagram>
</mxfile>
